<svg width="994" height="572" viewBox="0 0 994 572" fill="none" xmlns="http://www.w3.org/2000/svg">
<path fill-rule="evenodd" clip-rule="evenodd" d="M147.034 20.7287H67.8441L0.860133 44.5458V188.018L1.99918 190.205V386.203L0.575369 388.937L0.574219 570.715L180.477 568.792L210.218 568.532H389.08L623.956 569.052H801.194L836.862 568.792L992.149 569.43L993.574 386.012L992.72 384.645V188.647L993.574 186.733V43.2606L949.308 20.7424H871.923L865.658 14.7285L664.863 14.7284L670.558 20.7423L619.5 0.5H498.5H396.5L345.102 20.7287L350.797 14.9882L153.298 14.7148L147.034 20.7287ZM87.5817 57.8338H165.046H353.166H948.147V195.284L947.335 197.102V383.346L948.147 384.645L946.001 544H67.8441V530.215L69.8063 386.203L71.1593 383.606V197.362L70.0769 195.284V58.2321L87.5817 57.8338Z" fill="url(#paint0_linear_338_1614)"/>
<path d="M948.147 57.8338V195.284L947.335 197.102V383.346L948.147 384.645L946.001 544H67.8441V530.215L69.8063 386.203L71.1593 383.606V197.362L70.0769 195.284V58.2321L87.5817 57.8338H165.046H353.166H948.147ZM948.147 57.8338L946.001 59.1173M147.034 20.7287H67.8441L0.860133 44.5458V188.018L1.99918 190.205V386.203L0.575369 388.937L0.574219 570.715L180.477 568.792L210.218 568.532H389.08L623.956 569.052H801.194L836.862 568.792L992.149 569.43L993.574 386.012L992.72 384.645V188.647L993.574 186.733V43.2606L949.308 20.7424H871.923L865.658 14.7285L664.863 14.7284L670.558 20.7423L619.5 0.5H498.5H396.5L345.102 20.7287L350.797 14.9882L153.298 14.7148L147.034 20.7287Z" stroke="#00FF94" stroke-width="0.829677"/>
<defs>
<linearGradient id="paint0_linear_338_1614" x1="1153.89" y1="-454.332" x2="-112.736" y2="579.388" gradientUnits="userSpaceOnUse">
<stop offset="0.169223" stop-color="#00092A"/>
<stop offset="0.861292" stop-color="#004970"/>
<stop offset="1" stop-color="#004970"/>
</linearGradient>
</defs>
</svg>
