<svg width="282" height="142" viewBox="0 0 282 142" fill="none" xmlns="http://www.w3.org/2000/svg">
<path d="M14 54.0224V95M264 54V94.9776" stroke="#00A7FF" stroke-width="2.40614"/>
<path d="M18.8125 45.2413L29.6401 34.4136H39.2647M247.157 28.3984L264 45.2414M264 92.1611H256.782L239.939 110.207" stroke="#0CFEFF" stroke-width="2.40614"/>
<path opacity="0.5" d="M40.4688 23.5898H123.002M156.001 23.5898H230.002M230.002 117.429H156.001M123.002 117.429H40.4688" stroke="#00A7FF" stroke-width="2.40614"/>
<path d="M35.0185 28V34.0294H27.4804L19 44.8824V101.559L27.4804 110H241.155L254.346 91.9118H260V44.8824L246.808 28H35.0185Z" fill="url(#paint0_linear_335_1572)"/>
<g filter="url(#filter0_f_335_1572)">
<path d="M112.138 131.492L118.153 124.273H58L60.4061 127.883H90.4829L91.6859 131.492H112.138Z" fill="#00A7FF"/>
<path d="M166.276 131.492L160.261 124.273H220.414L218.008 127.883H187.931L186.728 131.492H166.276Z" fill="#00A7FF"/>
</g>
<g filter="url(#filter1_f_335_1572)">
<path d="M112.138 129.086L113.341 125.477H60.4062V126.68H92.8891L94.0922 129.086H112.138Z" fill="white"/>
</g>
<g filter="url(#filter2_f_335_1572)">
<path d="M166.276 130.289L163.87 125.477H218.008V126.68H187.931L185.525 130.289H166.276Z" fill="white"/>
</g>
<path d="M112.138 131.492L118.153 124.273H58L60.4061 127.883H90.4829L91.6859 131.492H112.138Z" fill="#00A7FF"/>
<path d="M166.276 131.492L160.261 124.273H220.414L218.008 127.883H187.931L186.728 131.492H166.276Z" fill="#00A7FF"/>
<path d="M78.0828 80.5565C76.5599 80.5565 75.2421 80.166 74.1292 79.3851C73.0359 78.6042 72.1964 77.5108 71.6107 76.1051C71.025 74.6994 70.7321 73.0594 70.7321 71.1852C70.7321 69.2523 70.9762 67.6709 71.4643 66.4409C71.9719 65.1914 72.6064 64.225 73.3678 63.5417C74.1488 62.8388 74.959 62.3605 75.7985 62.1067C76.638 61.8334 77.3897 61.6967 78.0535 61.6967C79.2444 61.6967 80.3573 61.9798 81.392 62.546C82.4463 63.0926 83.2468 63.8736 83.7934 64.8888L81.8606 66.7924L81.6849 66.9974L81.4799 66.7924C81.4604 66.6362 81.4213 66.4898 81.3627 66.3531C81.3237 66.1969 81.2066 65.9919 81.0113 65.7381C80.6794 65.3476 80.2889 65.0352 79.8399 64.801C79.4104 64.5667 78.8442 64.4495 78.1413 64.4495C77.419 64.4495 76.7356 64.6545 76.0914 65.0645C75.4666 65.4745 74.959 66.1579 74.5685 67.1145C74.1976 68.0516 74.0121 69.3109 74.0121 70.8923C74.0121 73.2352 74.3831 74.9825 75.1249 76.1344C75.8864 77.2863 76.8723 77.8623 78.0828 77.8623C78.5709 77.8623 79.0492 77.8037 79.5178 77.6865C80.0058 77.5499 80.4549 77.3058 80.8649 76.9544V73.5866H77.8485V70.8338H83.852V78.653C82.9734 79.3558 82.0461 79.8537 81.0699 80.1465C80.0937 80.4198 79.098 80.5565 78.0828 80.5565ZM89.0648 80.2344V61.9896H100.955V64.6838H92.2862V69.3695H99.4026V72.093H92.2862V77.5401H100.867V80.2344H89.0648ZM110.736 80.2344V64.7717H105.816V61.9896H119.082V64.7717H113.899V80.2344H110.736ZM141.515 80.2344V61.9896H146.23C147.831 61.9896 149.071 62.2141 149.949 62.6631C150.847 63.0926 151.599 63.7076 152.204 64.5081C152.809 65.3281 153.278 66.3043 153.61 67.4366C153.961 68.569 154.137 69.8381 154.137 71.2438C154.098 73.079 153.795 74.6799 153.229 76.0466C152.663 77.3937 151.775 78.4284 150.564 79.1508C149.373 79.8732 147.811 80.2344 145.879 80.2344H141.515ZM144.736 77.6573H145.791C147.04 77.6573 148.036 77.3937 148.778 76.8666C149.539 76.3394 150.086 75.5975 150.418 74.6409C150.75 73.6842 150.906 72.5616 150.886 71.273C150.886 69.9259 150.74 68.7545 150.447 67.7588C150.174 66.7631 149.686 65.9919 148.983 65.4452C148.28 64.8986 147.323 64.6252 146.113 64.6252H144.736V77.6573ZM168.809 80.2344L167.55 75.988H162.776L161.488 80.2344H158.208L164.387 61.8724H165.968L172.148 80.2344H168.809ZM165.178 67.9931L163.479 73.6159H166.847L165.178 67.9931ZM181.021 80.2344V64.7717H176.101V61.9896H189.367V64.7717H184.184V80.2344H181.021ZM203.951 80.2344L202.692 75.988H197.919L196.63 80.2344H193.35L199.529 61.8724H201.111L207.29 80.2344H203.951ZM200.32 67.9931L198.622 73.6159H201.989L200.32 67.9931Z" fill="#89D2FF"/>
<g filter="url(#filter3_f_335_1572)">
<circle cx="139.795" cy="18.7945" r="4.79452" fill="#0CFEFF"/>
</g>
<circle cx="139.795" cy="18.7945" r="4.79452" fill="#0CFEFF"/>
<g filter="url(#filter4_f_335_1572)">
<circle cx="139.794" cy="18.794" r="3.19635" fill="white"/>
</g>
<g filter="url(#filter5_f_335_1572)">
<circle cx="263.795" cy="31.7945" r="4.79452" fill="#0CFEFF"/>
</g>
<circle cx="263.795" cy="31.7945" r="4.79452" fill="#0CFEFF"/>
<g filter="url(#filter6_f_335_1572)">
<circle cx="263.794" cy="31.794" r="3.19635" fill="white"/>
</g>
<g filter="url(#filter7_f_335_1572)">
<circle cx="18.7945" cy="32.2203" r="4.79452" fill="#0CFEFF"/>
</g>
<circle cx="18.7945" cy="32.2203" r="4.79452" fill="#0CFEFF"/>
<g filter="url(#filter8_f_335_1572)">
<circle cx="18.794" cy="32.2198" r="3.19635" fill="white"/>
</g>
<g filter="url(#filter9_f_335_1572)">
<circle cx="31.2616" cy="117.562" r="1.91781" fill="#0CFEFF"/>
</g>
<circle cx="31.2616" cy="117.562" r="1.91781" fill="#0CFEFF"/>
<g filter="url(#filter10_f_335_1572)">
<circle cx="31.2629" cy="117.564" r="1.27854" fill="white"/>
</g>
<g filter="url(#filter11_f_335_1572)">
<circle cx="139.918" cy="117.562" r="1.91781" fill="#0CFEFF"/>
</g>
<circle cx="139.918" cy="117.562" r="1.91781" fill="#0CFEFF"/>
<g filter="url(#filter12_f_335_1572)">
<circle cx="139.919" cy="117.564" r="1.27854" fill="white"/>
</g>
<g filter="url(#filter13_f_335_1572)">
<circle cx="236.918" cy="116.918" r="1.91781" fill="#0CFEFF"/>
</g>
<circle cx="236.918" cy="116.918" r="1.91781" fill="#0CFEFF"/>
<g filter="url(#filter14_f_335_1572)">
<circle cx="236.919" cy="116.919" r="1.27854" fill="white"/>
</g>
<defs>
<filter id="filter0_f_335_1572" x="48.3754" y="114.649" width="181.663" height="26.4679" filterUnits="userSpaceOnUse" color-interpolation-filters="sRGB">
<feFlood flood-opacity="0" result="BackgroundImageFix"/>
<feBlend mode="normal" in="SourceGraphic" in2="BackgroundImageFix" result="shape"/>
<feGaussianBlur stdDeviation="4.81228" result="effect1_foregroundBlur_335_1572"/>
</filter>
<filter id="filter1_f_335_1572" x="50.7817" y="115.852" width="72.1827" height="22.8585" filterUnits="userSpaceOnUse" color-interpolation-filters="sRGB">
<feFlood flood-opacity="0" result="BackgroundImageFix"/>
<feBlend mode="normal" in="SourceGraphic" in2="BackgroundImageFix" result="shape"/>
<feGaussianBlur stdDeviation="4.81228" result="effect1_foregroundBlur_335_1572"/>
</filter>
<filter id="filter2_f_335_1572" x="153.898" y="115.504" width="74.0819" height="24.7577" filterUnits="userSpaceOnUse" color-interpolation-filters="sRGB">
<feFlood flood-opacity="0" result="BackgroundImageFix"/>
<feBlend mode="normal" in="SourceGraphic" in2="BackgroundImageFix" result="shape"/>
<feGaussianBlur stdDeviation="4.9863" result="effect1_foregroundBlur_335_1572"/>
</filter>
<filter id="filter3_f_335_1572" x="121.895" y="0.894979" width="35.7999" height="35.7999" filterUnits="userSpaceOnUse" color-interpolation-filters="sRGB">
<feFlood flood-opacity="0" result="BackgroundImageFix"/>
<feBlend mode="normal" in="SourceGraphic" in2="BackgroundImageFix" result="shape"/>
<feGaussianBlur stdDeviation="6.55251" result="effect1_foregroundBlur_335_1572"/>
</filter>
<filter id="filter4_f_335_1572" x="130.205" y="9.20496" width="19.1799" height="19.1799" filterUnits="userSpaceOnUse" color-interpolation-filters="sRGB">
<feFlood flood-opacity="0" result="BackgroundImageFix"/>
<feBlend mode="normal" in="SourceGraphic" in2="BackgroundImageFix" result="shape"/>
<feGaussianBlur stdDeviation="3.19635" result="effect1_foregroundBlur_335_1572"/>
</filter>
<filter id="filter5_f_335_1572" x="245.895" y="13.895" width="35.7999" height="35.7999" filterUnits="userSpaceOnUse" color-interpolation-filters="sRGB">
<feFlood flood-opacity="0" result="BackgroundImageFix"/>
<feBlend mode="normal" in="SourceGraphic" in2="BackgroundImageFix" result="shape"/>
<feGaussianBlur stdDeviation="6.55251" result="effect1_foregroundBlur_335_1572"/>
</filter>
<filter id="filter6_f_335_1572" x="254.205" y="22.205" width="19.1799" height="19.1799" filterUnits="userSpaceOnUse" color-interpolation-filters="sRGB">
<feFlood flood-opacity="0" result="BackgroundImageFix"/>
<feBlend mode="normal" in="SourceGraphic" in2="BackgroundImageFix" result="shape"/>
<feGaussianBlur stdDeviation="3.19635" result="effect1_foregroundBlur_335_1572"/>
</filter>
<filter id="filter7_f_335_1572" x="0.894979" y="14.3208" width="35.7999" height="35.7999" filterUnits="userSpaceOnUse" color-interpolation-filters="sRGB">
<feFlood flood-opacity="0" result="BackgroundImageFix"/>
<feBlend mode="normal" in="SourceGraphic" in2="BackgroundImageFix" result="shape"/>
<feGaussianBlur stdDeviation="6.55251" result="effect1_foregroundBlur_335_1572"/>
</filter>
<filter id="filter8_f_335_1572" x="9.20496" y="22.6307" width="19.1799" height="19.1799" filterUnits="userSpaceOnUse" color-interpolation-filters="sRGB">
<feFlood flood-opacity="0" result="BackgroundImageFix"/>
<feBlend mode="normal" in="SourceGraphic" in2="BackgroundImageFix" result="shape"/>
<feGaussianBlur stdDeviation="3.19635" result="effect1_foregroundBlur_335_1572"/>
</filter>
<filter id="filter9_f_335_1572" x="21.4807" y="107.782" width="19.562" height="19.562" filterUnits="userSpaceOnUse" color-interpolation-filters="sRGB">
<feFlood flood-opacity="0" result="BackgroundImageFix"/>
<feBlend mode="normal" in="SourceGraphic" in2="BackgroundImageFix" result="shape"/>
<feGaussianBlur stdDeviation="3.93151" result="effect1_foregroundBlur_335_1572"/>
</filter>
<filter id="filter10_f_335_1572" x="26.1488" y="112.45" width="10.2298" height="10.2298" filterUnits="userSpaceOnUse" color-interpolation-filters="sRGB">
<feFlood flood-opacity="0" result="BackgroundImageFix"/>
<feBlend mode="normal" in="SourceGraphic" in2="BackgroundImageFix" result="shape"/>
<feGaussianBlur stdDeviation="1.91781" result="effect1_foregroundBlur_335_1572"/>
</filter>
<filter id="filter11_f_335_1572" x="130.137" y="107.782" width="19.562" height="19.562" filterUnits="userSpaceOnUse" color-interpolation-filters="sRGB">
<feFlood flood-opacity="0" result="BackgroundImageFix"/>
<feBlend mode="normal" in="SourceGraphic" in2="BackgroundImageFix" result="shape"/>
<feGaussianBlur stdDeviation="3.93151" result="effect1_foregroundBlur_335_1572"/>
</filter>
<filter id="filter12_f_335_1572" x="134.805" y="112.45" width="10.2298" height="10.2298" filterUnits="userSpaceOnUse" color-interpolation-filters="sRGB">
<feFlood flood-opacity="0" result="BackgroundImageFix"/>
<feBlend mode="normal" in="SourceGraphic" in2="BackgroundImageFix" result="shape"/>
<feGaussianBlur stdDeviation="1.91781" result="effect1_foregroundBlur_335_1572"/>
</filter>
<filter id="filter13_f_335_1572" x="227.137" y="107.137" width="19.562" height="19.562" filterUnits="userSpaceOnUse" color-interpolation-filters="sRGB">
<feFlood flood-opacity="0" result="BackgroundImageFix"/>
<feBlend mode="normal" in="SourceGraphic" in2="BackgroundImageFix" result="shape"/>
<feGaussianBlur stdDeviation="3.93151" result="effect1_foregroundBlur_335_1572"/>
</filter>
<filter id="filter14_f_335_1572" x="231.805" y="111.805" width="10.2298" height="10.2298" filterUnits="userSpaceOnUse" color-interpolation-filters="sRGB">
<feFlood flood-opacity="0" result="BackgroundImageFix"/>
<feBlend mode="normal" in="SourceGraphic" in2="BackgroundImageFix" result="shape"/>
<feGaussianBlur stdDeviation="1.91781" result="effect1_foregroundBlur_335_1572"/>
</filter>
<linearGradient id="paint0_linear_335_1572" x1="144.049" y1="-191.291" x2="112.673" y2="121.14" gradientUnits="userSpaceOnUse">
<stop offset="0.698828" stop-color="#004970"/>
<stop offset="1" stop-color="#0CFEFF" stop-opacity="0"/>
</linearGradient>
</defs>
</svg>
