<svg width="448" height="142" viewBox="0 0 448 142" fill="none" xmlns="http://www.w3.org/2000/svg">
<path d="M14 53.6667V94.5711M433.041 53.6445V94.5489" stroke="#00A7FF" stroke-width="2.40614"/>
<path d="M18.8125 45.2442L29.6401 34.4166H39.2647M412.363 28.8008L429.206 45.6438M429.206 92.5635H421.987L405.144 110.61" stroke="#0CFEFF" stroke-width="2.40614"/>
<path opacity="0.5" d="M40.4688 23.5898H203.864M249.892 23.5898H412.905M395.645 117.429H249.892M207.22 117.429H40.4688" stroke="#00A7FF" stroke-width="2.40614"/>
<path d="M39.2451 28.3828V34.3982H29.6206L18.793 45.2258V101.77L29.6206 110.192H405.143L421.986 92.1455H429.204V45.2258L412.361 28.3828H39.2451Z" fill="url(#paint0_linear_361_1420)"/>
<g filter="url(#filter0_f_361_1420)">
<path d="M200.466 131.492L206.482 124.273H146.328L148.734 127.883H178.811L180.014 131.492H200.466Z" fill="#00A7FF"/>
<path d="M254.604 131.492L248.589 124.273H308.742L306.336 127.883H276.259L275.056 131.492H254.604Z" fill="#00A7FF"/>
</g>
<g filter="url(#filter1_f_361_1420)">
<path d="M200.466 129.086L201.669 125.477H148.734V126.68H181.217L182.42 129.086H200.466Z" fill="white"/>
</g>
<g filter="url(#filter2_f_361_1420)">
<path d="M254.604 130.289L252.198 125.477H306.336V126.68H276.259L273.853 130.289H254.604Z" fill="white"/>
</g>
<path d="M200.466 131.492L206.482 124.273H146.328L148.734 127.883H178.811L180.014 131.492H200.466Z" fill="#00A7FF"/>
<path d="M254.604 131.492L248.589 124.273H308.742L306.336 127.883H276.259L275.056 131.492H254.604Z" fill="#00A7FF"/>
<g filter="url(#filter3_f_361_1420)">
<circle cx="227.837" cy="18.7945" r="4.79452" fill="#0CFEFF"/>
</g>
<circle cx="227.837" cy="18.7945" r="4.79452" fill="#0CFEFF"/>
<g filter="url(#filter4_f_361_1420)">
<circle cx="227.837" cy="18.794" r="3.19635" fill="white"/>
</g>
<g filter="url(#filter5_f_361_1420)">
<circle cx="429.205" cy="32.2203" r="4.79452" fill="#0CFEFF"/>
</g>
<circle cx="429.205" cy="32.2203" r="4.79452" fill="#0CFEFF"/>
<g filter="url(#filter6_f_361_1420)">
<circle cx="429.204" cy="32.2198" r="3.19635" fill="white"/>
</g>
<g filter="url(#filter7_f_361_1420)">
<circle cx="18.7945" cy="32.2203" r="4.79452" fill="#0CFEFF"/>
</g>
<circle cx="18.7945" cy="32.2203" r="4.79452" fill="#0CFEFF"/>
<g filter="url(#filter8_f_361_1420)">
<circle cx="18.794" cy="32.2198" r="3.19635" fill="white"/>
</g>
<g filter="url(#filter9_f_361_1420)">
<circle cx="31.2616" cy="117.562" r="1.91781" fill="#0CFEFF"/>
</g>
<circle cx="31.2616" cy="117.562" r="1.91781" fill="#0CFEFF"/>
<g filter="url(#filter10_f_361_1420)">
<circle cx="31.2629" cy="117.564" r="1.27854" fill="white"/>
</g>
<g filter="url(#filter11_f_361_1420)">
<circle cx="227.836" cy="117.562" r="1.91781" fill="#0CFEFF"/>
</g>
<circle cx="227.836" cy="117.562" r="1.91781" fill="#0CFEFF"/>
<g filter="url(#filter12_f_361_1420)">
<circle cx="227.837" cy="117.564" r="1.27854" fill="white"/>
</g>
<g filter="url(#filter13_f_361_1420)">
<circle cx="403.316" cy="117.562" r="1.91781" fill="#0CFEFF"/>
</g>
<circle cx="403.316" cy="117.562" r="1.91781" fill="#0CFEFF"/>
<g filter="url(#filter14_f_361_1420)">
<circle cx="403.318" cy="117.564" r="1.27854" fill="white"/>
</g>
<defs>
<filter id="filter0_f_361_1420" x="136.704" y="114.649" width="181.663" height="26.4679" filterUnits="userSpaceOnUse" color-interpolation-filters="sRGB">
<feFlood flood-opacity="0" result="BackgroundImageFix"/>
<feBlend mode="normal" in="SourceGraphic" in2="BackgroundImageFix" result="shape"/>
<feGaussianBlur stdDeviation="4.81228" result="effect1_foregroundBlur_361_1420"/>
</filter>
<filter id="filter1_f_361_1420" x="139.11" y="115.852" width="72.1827" height="22.8585" filterUnits="userSpaceOnUse" color-interpolation-filters="sRGB">
<feFlood flood-opacity="0" result="BackgroundImageFix"/>
<feBlend mode="normal" in="SourceGraphic" in2="BackgroundImageFix" result="shape"/>
<feGaussianBlur stdDeviation="4.81228" result="effect1_foregroundBlur_361_1420"/>
</filter>
<filter id="filter2_f_361_1420" x="242.227" y="115.504" width="74.0819" height="24.7577" filterUnits="userSpaceOnUse" color-interpolation-filters="sRGB">
<feFlood flood-opacity="0" result="BackgroundImageFix"/>
<feBlend mode="normal" in="SourceGraphic" in2="BackgroundImageFix" result="shape"/>
<feGaussianBlur stdDeviation="4.9863" result="effect1_foregroundBlur_361_1420"/>
</filter>
<filter id="filter3_f_361_1420" x="209.938" y="0.894979" width="35.7999" height="35.7999" filterUnits="userSpaceOnUse" color-interpolation-filters="sRGB">
<feFlood flood-opacity="0" result="BackgroundImageFix"/>
<feBlend mode="normal" in="SourceGraphic" in2="BackgroundImageFix" result="shape"/>
<feGaussianBlur stdDeviation="6.55251" result="effect1_foregroundBlur_361_1420"/>
</filter>
<filter id="filter4_f_361_1420" x="218.248" y="9.20496" width="19.1799" height="19.1799" filterUnits="userSpaceOnUse" color-interpolation-filters="sRGB">
<feFlood flood-opacity="0" result="BackgroundImageFix"/>
<feBlend mode="normal" in="SourceGraphic" in2="BackgroundImageFix" result="shape"/>
<feGaussianBlur stdDeviation="3.19635" result="effect1_foregroundBlur_361_1420"/>
</filter>
<filter id="filter5_f_361_1420" x="411.305" y="14.3208" width="35.7999" height="35.7999" filterUnits="userSpaceOnUse" color-interpolation-filters="sRGB">
<feFlood flood-opacity="0" result="BackgroundImageFix"/>
<feBlend mode="normal" in="SourceGraphic" in2="BackgroundImageFix" result="shape"/>
<feGaussianBlur stdDeviation="6.55251" result="effect1_foregroundBlur_361_1420"/>
</filter>
<filter id="filter6_f_361_1420" x="419.615" y="22.6307" width="19.1799" height="19.1799" filterUnits="userSpaceOnUse" color-interpolation-filters="sRGB">
<feFlood flood-opacity="0" result="BackgroundImageFix"/>
<feBlend mode="normal" in="SourceGraphic" in2="BackgroundImageFix" result="shape"/>
<feGaussianBlur stdDeviation="3.19635" result="effect1_foregroundBlur_361_1420"/>
</filter>
<filter id="filter7_f_361_1420" x="0.894979" y="14.3208" width="35.7999" height="35.7999" filterUnits="userSpaceOnUse" color-interpolation-filters="sRGB">
<feFlood flood-opacity="0" result="BackgroundImageFix"/>
<feBlend mode="normal" in="SourceGraphic" in2="BackgroundImageFix" result="shape"/>
<feGaussianBlur stdDeviation="6.55251" result="effect1_foregroundBlur_361_1420"/>
</filter>
<filter id="filter8_f_361_1420" x="9.20496" y="22.6307" width="19.1799" height="19.1799" filterUnits="userSpaceOnUse" color-interpolation-filters="sRGB">
<feFlood flood-opacity="0" result="BackgroundImageFix"/>
<feBlend mode="normal" in="SourceGraphic" in2="BackgroundImageFix" result="shape"/>
<feGaussianBlur stdDeviation="3.19635" result="effect1_foregroundBlur_361_1420"/>
</filter>
<filter id="filter9_f_361_1420" x="21.4807" y="107.782" width="19.562" height="19.562" filterUnits="userSpaceOnUse" color-interpolation-filters="sRGB">
<feFlood flood-opacity="0" result="BackgroundImageFix"/>
<feBlend mode="normal" in="SourceGraphic" in2="BackgroundImageFix" result="shape"/>
<feGaussianBlur stdDeviation="3.93151" result="effect1_foregroundBlur_361_1420"/>
</filter>
<filter id="filter10_f_361_1420" x="26.1488" y="112.45" width="10.2298" height="10.2298" filterUnits="userSpaceOnUse" color-interpolation-filters="sRGB">
<feFlood flood-opacity="0" result="BackgroundImageFix"/>
<feBlend mode="normal" in="SourceGraphic" in2="BackgroundImageFix" result="shape"/>
<feGaussianBlur stdDeviation="1.91781" result="effect1_foregroundBlur_361_1420"/>
</filter>
<filter id="filter11_f_361_1420" x="218.055" y="107.782" width="19.562" height="19.562" filterUnits="userSpaceOnUse" color-interpolation-filters="sRGB">
<feFlood flood-opacity="0" result="BackgroundImageFix"/>
<feBlend mode="normal" in="SourceGraphic" in2="BackgroundImageFix" result="shape"/>
<feGaussianBlur stdDeviation="3.93151" result="effect1_foregroundBlur_361_1420"/>
</filter>
<filter id="filter12_f_361_1420" x="222.723" y="112.45" width="10.2298" height="10.2298" filterUnits="userSpaceOnUse" color-interpolation-filters="sRGB">
<feFlood flood-opacity="0" result="BackgroundImageFix"/>
<feBlend mode="normal" in="SourceGraphic" in2="BackgroundImageFix" result="shape"/>
<feGaussianBlur stdDeviation="1.91781" result="effect1_foregroundBlur_361_1420"/>
</filter>
<filter id="filter13_f_361_1420" x="393.535" y="107.782" width="19.562" height="19.562" filterUnits="userSpaceOnUse" color-interpolation-filters="sRGB">
<feFlood flood-opacity="0" result="BackgroundImageFix"/>
<feBlend mode="normal" in="SourceGraphic" in2="BackgroundImageFix" result="shape"/>
<feGaussianBlur stdDeviation="3.93151" result="effect1_foregroundBlur_361_1420"/>
</filter>
<filter id="filter14_f_361_1420" x="398.203" y="112.45" width="10.2298" height="10.2298" filterUnits="userSpaceOnUse" color-interpolation-filters="sRGB">
<feFlood flood-opacity="0" result="BackgroundImageFix"/>
<feBlend mode="normal" in="SourceGraphic" in2="BackgroundImageFix" result="shape"/>
<feGaussianBlur stdDeviation="1.91781" result="effect1_foregroundBlur_361_1420"/>
</filter>
<linearGradient id="paint0_linear_361_1420" x1="178.454" y1="-190.397" x2="153.899" y2="122.523" gradientUnits="userSpaceOnUse">
<stop offset="0.698828" stop-color="#004970"/>
<stop offset="1" stop-color="#0CFEFF" stop-opacity="0"/>
</linearGradient>
</defs>
</svg>
