<svg width="282" height="142" viewBox="0 0 282 142" fill="none" xmlns="http://www.w3.org/2000/svg">
<path d="M14 54.0224V95M264 54V94.9776" stroke="#00A7FF" stroke-width="2.40614"/>
<path d="M18.8125 45.2413L29.6401 34.4136H39.2647M247.157 28.3984L264 45.2414M264 92.1611H256.782L239.939 110.207" stroke="#0CFEFF" stroke-width="2.40614"/>
<path opacity="0.5" d="M40.4688 23.5898H123.002M156.001 23.5898H230.002M230.002 117.429H156.001M123.002 117.429H40.4688" stroke="#00A7FF" stroke-width="2.40614"/>
<path d="M35.0185 28V34.0294H27.4804L19 44.8824V101.559L27.4804 110H241.155L254.346 91.9118H260V44.8824L246.808 28H35.0185Z" fill="url(#paint0_linear_335_1572)"/>
<g filter="url(#filter0_f_335_1572)">
<path d="M112.138 131.492L118.153 124.273H58L60.4061 127.883H90.4829L91.6859 131.492H112.138Z" fill="#00A7FF"/>
<path d="M166.276 131.492L160.261 124.273H220.414L218.008 127.883H187.931L186.728 131.492H166.276Z" fill="#00A7FF"/>
</g>
<g filter="url(#filter1_f_335_1572)">
<path d="M112.138 129.086L113.341 125.477H60.4062V126.68H92.8891L94.0922 129.086H112.138Z" fill="white"/>
</g>
<g filter="url(#filter2_f_335_1572)">
<path d="M166.276 130.289L163.87 125.477H218.008V126.68H187.931L185.525 130.289H166.276Z" fill="white"/>
</g>
<path d="M112.138 131.492L118.153 124.273H58L60.4061 127.883H90.4829L91.6859 131.492H112.138Z" fill="#00A7FF"/>
<path d="M166.276 131.492L160.261 124.273H220.414L218.008 127.883H187.931L186.728 131.492H166.276Z" fill="#00A7FF"/>
<path d="M76.3256 80.2929L70.4686 61.9896H73.7485L77.5849 74.8166L81.1577 61.9896H84.3499L78.5513 80.2929H76.3256ZM89.6212 80.2344V77.5694H93.194V64.6545H89.8262V61.9896H99.9004V64.6545H96.3276V77.5694H100.047V80.2344H89.6212ZM106.636 80.2344V61.9896H118.526V64.6838H109.857V69.3695H116.974V72.093H109.857V77.5401H118.438V80.2344H106.636ZM125.408 80.2344L123.007 61.9896H125.877L127.107 73.4402L129.449 63.4245H131.207L133.549 73.4109L134.516 61.9896H137.21L134.838 80.2344H132.759L130.182 68.9888L127.546 80.2344H125.408ZM159.262 80.2344V61.9896H165.47C166.876 61.9896 168.038 62.2336 168.955 62.7217C169.873 63.2098 170.547 63.8638 170.976 64.6838C171.425 65.4843 171.65 66.3726 171.65 67.3488C171.65 68.3054 171.435 69.184 171.005 69.9845C170.576 70.7654 169.912 71.3999 169.014 71.888C168.116 72.3566 166.984 72.5909 165.617 72.5909H162.63V80.2344H159.262ZM162.63 69.8381H165.383C166.32 69.8381 167.032 69.6038 167.52 69.1352C168.009 68.6666 168.253 68.0712 168.253 67.3488C168.253 66.6264 168.009 66.0309 167.52 65.5624C167.032 65.0938 166.329 64.8595 165.412 64.8595H162.63V69.8381ZM177.097 61.9896H180.699V62.2531C180.582 62.3703 180.504 62.5069 180.465 62.6631C180.445 62.7998 180.435 63.0243 180.435 63.3367V77.5401H188.811V80.2344H177.097V61.9896ZM200.379 80.5858C198.133 80.5858 196.435 79.7658 195.283 78.1258C194.131 76.4858 193.555 74.1528 193.555 71.1266C193.555 68.1785 194.131 65.8748 195.283 64.2153C196.435 62.5557 198.133 61.726 200.379 61.726C202.585 61.726 204.264 62.5557 205.416 64.2153C206.587 65.8748 207.173 68.1785 207.173 71.1266C207.173 74.1528 206.587 76.4858 205.416 78.1258C204.264 79.7658 202.585 80.5858 200.379 80.5858ZM200.379 77.8915C201.472 77.8915 202.331 77.3351 202.956 76.2223C203.581 75.0899 203.893 73.3816 203.893 71.0973C203.893 68.9693 203.581 67.3293 202.956 66.1774C202.331 65.006 201.472 64.4203 200.379 64.4203C199.246 64.4203 198.368 65.006 197.743 66.1774C197.138 67.3293 196.835 68.9693 196.835 71.0973C196.835 73.3816 197.138 75.0899 197.743 76.2223C198.368 77.3351 199.246 77.8915 200.379 77.8915ZM216.163 80.2344V64.7717H211.244V61.9896H224.51V64.7717H219.326V80.2344H216.163Z" fill="#89D2FF"/>
<g filter="url(#filter3_f_335_1572)">
<circle cx="139.795" cy="18.7945" r="4.79452" fill="#0CFEFF"/>
</g>
<circle cx="139.795" cy="18.7945" r="4.79452" fill="#0CFEFF"/>
<g filter="url(#filter4_f_335_1572)">
<circle cx="139.794" cy="18.794" r="3.19635" fill="white"/>
</g>
<g filter="url(#filter5_f_335_1572)">
<circle cx="263.795" cy="31.7945" r="4.79452" fill="#0CFEFF"/>
</g>
<circle cx="263.795" cy="31.7945" r="4.79452" fill="#0CFEFF"/>
<g filter="url(#filter6_f_335_1572)">
<circle cx="263.794" cy="31.794" r="3.19635" fill="white"/>
</g>
<g filter="url(#filter7_f_335_1572)">
<circle cx="18.7945" cy="32.2203" r="4.79452" fill="#0CFEFF"/>
</g>
<circle cx="18.7945" cy="32.2203" r="4.79452" fill="#0CFEFF"/>
<g filter="url(#filter8_f_335_1572)">
<circle cx="18.794" cy="32.2198" r="3.19635" fill="white"/>
</g>
<g filter="url(#filter9_f_335_1572)">
<circle cx="31.2616" cy="117.562" r="1.91781" fill="#0CFEFF"/>
</g>
<circle cx="31.2616" cy="117.562" r="1.91781" fill="#0CFEFF"/>
<g filter="url(#filter10_f_335_1572)">
<circle cx="31.2629" cy="117.564" r="1.27854" fill="white"/>
</g>
<g filter="url(#filter11_f_335_1572)">
<circle cx="139.918" cy="117.562" r="1.91781" fill="#0CFEFF"/>
</g>
<circle cx="139.918" cy="117.562" r="1.91781" fill="#0CFEFF"/>
<g filter="url(#filter12_f_335_1572)">
<circle cx="139.919" cy="117.564" r="1.27854" fill="white"/>
</g>
<g filter="url(#filter13_f_335_1572)">
<circle cx="236.918" cy="116.918" r="1.91781" fill="#0CFEFF"/>
</g>
<circle cx="236.918" cy="116.918" r="1.91781" fill="#0CFEFF"/>
<g filter="url(#filter14_f_335_1572)">
<circle cx="236.919" cy="116.919" r="1.27854" fill="white"/>
</g>
<defs>
<filter id="filter0_f_335_1572" x="48.3754" y="114.649" width="181.663" height="26.4679" filterUnits="userSpaceOnUse" color-interpolation-filters="sRGB">
<feFlood flood-opacity="0" result="BackgroundImageFix"/>
<feBlend mode="normal" in="SourceGraphic" in2="BackgroundImageFix" result="shape"/>
<feGaussianBlur stdDeviation="4.81228" result="effect1_foregroundBlur_335_1572"/>
</filter>
<filter id="filter1_f_335_1572" x="50.7817" y="115.852" width="72.1827" height="22.8585" filterUnits="userSpaceOnUse" color-interpolation-filters="sRGB">
<feFlood flood-opacity="0" result="BackgroundImageFix"/>
<feBlend mode="normal" in="SourceGraphic" in2="BackgroundImageFix" result="shape"/>
<feGaussianBlur stdDeviation="4.81228" result="effect1_foregroundBlur_335_1572"/>
</filter>
<filter id="filter2_f_335_1572" x="153.898" y="115.504" width="74.0819" height="24.7577" filterUnits="userSpaceOnUse" color-interpolation-filters="sRGB">
<feFlood flood-opacity="0" result="BackgroundImageFix"/>
<feBlend mode="normal" in="SourceGraphic" in2="BackgroundImageFix" result="shape"/>
<feGaussianBlur stdDeviation="4.9863" result="effect1_foregroundBlur_335_1572"/>
</filter>
<filter id="filter3_f_335_1572" x="121.895" y="0.894979" width="35.7999" height="35.7999" filterUnits="userSpaceOnUse" color-interpolation-filters="sRGB">
<feFlood flood-opacity="0" result="BackgroundImageFix"/>
<feBlend mode="normal" in="SourceGraphic" in2="BackgroundImageFix" result="shape"/>
<feGaussianBlur stdDeviation="6.55251" result="effect1_foregroundBlur_335_1572"/>
</filter>
<filter id="filter4_f_335_1572" x="130.205" y="9.20496" width="19.1799" height="19.1799" filterUnits="userSpaceOnUse" color-interpolation-filters="sRGB">
<feFlood flood-opacity="0" result="BackgroundImageFix"/>
<feBlend mode="normal" in="SourceGraphic" in2="BackgroundImageFix" result="shape"/>
<feGaussianBlur stdDeviation="3.19635" result="effect1_foregroundBlur_335_1572"/>
</filter>
<filter id="filter5_f_335_1572" x="245.895" y="13.895" width="35.7999" height="35.7999" filterUnits="userSpaceOnUse" color-interpolation-filters="sRGB">
<feFlood flood-opacity="0" result="BackgroundImageFix"/>
<feBlend mode="normal" in="SourceGraphic" in2="BackgroundImageFix" result="shape"/>
<feGaussianBlur stdDeviation="6.55251" result="effect1_foregroundBlur_335_1572"/>
</filter>
<filter id="filter6_f_335_1572" x="254.205" y="22.205" width="19.1799" height="19.1799" filterUnits="userSpaceOnUse" color-interpolation-filters="sRGB">
<feFlood flood-opacity="0" result="BackgroundImageFix"/>
<feBlend mode="normal" in="SourceGraphic" in2="BackgroundImageFix" result="shape"/>
<feGaussianBlur stdDeviation="3.19635" result="effect1_foregroundBlur_335_1572"/>
</filter>
<filter id="filter7_f_335_1572" x="0.894979" y="14.3208" width="35.7999" height="35.7999" filterUnits="userSpaceOnUse" color-interpolation-filters="sRGB">
<feFlood flood-opacity="0" result="BackgroundImageFix"/>
<feBlend mode="normal" in="SourceGraphic" in2="BackgroundImageFix" result="shape"/>
<feGaussianBlur stdDeviation="6.55251" result="effect1_foregroundBlur_335_1572"/>
</filter>
<filter id="filter8_f_335_1572" x="9.20496" y="22.6307" width="19.1799" height="19.1799" filterUnits="userSpaceOnUse" color-interpolation-filters="sRGB">
<feFlood flood-opacity="0" result="BackgroundImageFix"/>
<feBlend mode="normal" in="SourceGraphic" in2="BackgroundImageFix" result="shape"/>
<feGaussianBlur stdDeviation="3.19635" result="effect1_foregroundBlur_335_1572"/>
</filter>
<filter id="filter9_f_335_1572" x="21.4807" y="107.782" width="19.562" height="19.562" filterUnits="userSpaceOnUse" color-interpolation-filters="sRGB">
<feFlood flood-opacity="0" result="BackgroundImageFix"/>
<feBlend mode="normal" in="SourceGraphic" in2="BackgroundImageFix" result="shape"/>
<feGaussianBlur stdDeviation="3.93151" result="effect1_foregroundBlur_335_1572"/>
</filter>
<filter id="filter10_f_335_1572" x="26.1488" y="112.45" width="10.2298" height="10.2298" filterUnits="userSpaceOnUse" color-interpolation-filters="sRGB">
<feFlood flood-opacity="0" result="BackgroundImageFix"/>
<feBlend mode="normal" in="SourceGraphic" in2="BackgroundImageFix" result="shape"/>
<feGaussianBlur stdDeviation="1.91781" result="effect1_foregroundBlur_335_1572"/>
</filter>
<filter id="filter11_f_335_1572" x="130.137" y="107.782" width="19.562" height="19.562" filterUnits="userSpaceOnUse" color-interpolation-filters="sRGB">
<feFlood flood-opacity="0" result="BackgroundImageFix"/>
<feBlend mode="normal" in="SourceGraphic" in2="BackgroundImageFix" result="shape"/>
<feGaussianBlur stdDeviation="3.93151" result="effect1_foregroundBlur_335_1572"/>
</filter>
<filter id="filter12_f_335_1572" x="134.805" y="112.45" width="10.2298" height="10.2298" filterUnits="userSpaceOnUse" color-interpolation-filters="sRGB">
<feFlood flood-opacity="0" result="BackgroundImageFix"/>
<feBlend mode="normal" in="SourceGraphic" in2="BackgroundImageFix" result="shape"/>
<feGaussianBlur stdDeviation="1.91781" result="effect1_foregroundBlur_335_1572"/>
</filter>
<filter id="filter13_f_335_1572" x="227.137" y="107.137" width="19.562" height="19.562" filterUnits="userSpaceOnUse" color-interpolation-filters="sRGB">
<feFlood flood-opacity="0" result="BackgroundImageFix"/>
<feBlend mode="normal" in="SourceGraphic" in2="BackgroundImageFix" result="shape"/>
<feGaussianBlur stdDeviation="3.93151" result="effect1_foregroundBlur_335_1572"/>
</filter>
<filter id="filter14_f_335_1572" x="231.805" y="111.805" width="10.2298" height="10.2298" filterUnits="userSpaceOnUse" color-interpolation-filters="sRGB">
<feFlood flood-opacity="0" result="BackgroundImageFix"/>
<feBlend mode="normal" in="SourceGraphic" in2="BackgroundImageFix" result="shape"/>
<feGaussianBlur stdDeviation="1.91781" result="effect1_foregroundBlur_335_1572"/>
</filter>
<linearGradient id="paint0_linear_335_1572" x1="144.049" y1="-191.291" x2="112.673" y2="121.14" gradientUnits="userSpaceOnUse">
<stop offset="0.698828" stop-color="#004970"/>
<stop offset="1" stop-color="#0CFEFF" stop-opacity="0"/>
</linearGradient>
</defs>
</svg>
